<svg width="25" height="24" viewBox="0 0 25 24" fill="none" xmlns="http://www.w3.org/2000/svg">
<path fill-rule="evenodd" clip-rule="evenodd" d="M2.5 7C2.5 4.23857 4.73857 2 7.5 2H17.5C20.2614 2 22.5 4.23857 22.5 7V17C22.5 19.7614 20.2614 22 17.5 22H7.5C4.73857 22 2.5 19.7614 2.5 17V7ZM12.5 6.64286C13.0917 6.64286 13.5714 7.12256 13.5714 7.71429V10.9286H16.7857C17.3774 10.9286 17.8571 11.4083 17.8571 12C17.8571 12.5917 17.3774 13.0714 16.7857 13.0714H13.5714V16.2857C13.5714 16.8774 13.0917 17.3571 12.5 17.3571C11.9083 17.3571 11.4286 16.8774 11.4286 16.2857V13.0714H8.21429C7.62256 13.0714 7.14286 12.5917 7.14286 12C7.14286 11.4083 7.62256 10.9286 8.21429 10.9286H11.4286V7.71429C11.4286 7.12256 11.9083 6.64286 12.5 6.64286Z" fill="#00A775"/>
</svg>
