<svg width="64" height="64" viewBox="0 0 64 64" fill="none" xmlns="http://www.w3.org/2000/svg">
<rect width="64" height="64" rx="32" fill="#EFEFEF"/>
<path d="M37.1429 32.8571H32.8571V37.1429C32.8571 37.3702 32.7668 37.5882 32.6061 37.7489C32.4453 37.9097 32.2273 38 32 38C31.7727 38 31.5547 37.9097 31.3939 37.7489C31.2332 37.5882 31.1429 37.3702 31.1429 37.1429V32.8571H26.8571C26.6298 32.8571 26.4118 32.7668 26.2511 32.6061C26.0903 32.4453 26 32.2273 26 32C26 31.7727 26.0903 31.5547 26.2511 31.3939C26.4118 31.2332 26.6298 31.1429 26.8571 31.1429H31.1429V26.8571C31.1429 26.6298 31.2332 26.4118 31.3939 26.2511C31.5547 26.0903 31.7727 26 32 26C32.2273 26 32.4453 26.0903 32.6061 26.2511C32.7668 26.4118 32.8571 26.6298 32.8571 26.8571V31.1429H37.1429C37.3702 31.1429 37.5882 31.2332 37.7489 31.3939C37.9097 31.5547 38 31.7727 38 32C38 32.2273 37.9097 32.4453 37.7489 32.6061C37.5882 32.7668 37.3702 32.8571 37.1429 32.8571Z" fill="#A5A5A5"/>
</svg>
