<svg width="241" height="127" viewBox="0 0 241 127" fill="none" xmlns="http://www.w3.org/2000/svg">
<ellipse cx="120.5" cy="100.5" rx="120.5" ry="26.5" fill="#EFEFEF"/>
<ellipse cx="121" cy="97" rx="84" ry="16" fill="#DFDFDF"/>
<g clip-path="url(#clip0_2300_27650)">
<path d="M93.9554 56.5505C91.2881 51.8239 90.527 46.3159 91.4752 40.9833C91.7138 39.6406 91.8396 38.2564 91.8396 36.8435C91.8396 23.6747 81.0448 13 67.7245 13H53.2755C39.9552 13 29.1604 23.6747 29.1604 36.8467C29.1604 38.2596 29.2862 39.6406 29.5248 40.9865C30.473 46.3159 29.7119 51.827 27.0446 56.5537C25.1063 59.9854 24 63.9434 24 68.1533C24 81.3221 34.7949 92 48.1151 92H72.8849C86.2019 92 97 81.3253 97 68.1533C97 63.9402 95.8937 59.9854 93.9554 56.5537V56.5505Z" fill="white"/>
<path d="M55.6984 31.0842C56.7594 31.0842 57.6194 30.0189 57.6194 28.7047C57.6194 27.3905 56.7594 26.3252 55.6984 26.3252C54.6374 26.3252 53.7773 27.3905 53.7773 28.7047C53.7773 30.0189 54.6374 31.0842 55.6984 31.0842Z" fill="#242424"/>
<path d="M35.5273 32.9883L40.33 32.9883" stroke="#EAFF84" stroke-width="7" stroke-linecap="round"/>
<path d="M61.4609 32.9883H66.2636" stroke="#EAFF84" stroke-width="7" stroke-linecap="round"/>
<path d="M46.0929 31.0842C47.1539 31.0842 48.014 30.0189 48.014 28.7047C48.014 27.3905 47.1539 26.3252 46.0929 26.3252C45.032 26.3252 44.1719 27.3905 44.1719 28.7047C44.1719 30.0189 45.032 31.0842 46.0929 31.0842Z" fill="#242424"/>
</g>
<g clip-path="url(#clip1_2300_27650)">
<path d="M148.045 56.5505C150.712 51.8239 151.473 46.3159 150.525 40.9833C150.286 39.6406 150.16 38.2564 150.16 36.8435C150.16 23.6747 160.955 13 174.275 13H188.725C202.045 13 212.84 23.6747 212.84 36.8467C212.84 38.2596 212.714 39.6406 212.475 40.9865C211.527 46.3159 212.288 51.827 214.955 56.5537C216.894 59.9854 218 63.9434 218 68.1533C218 81.3221 207.205 92 193.885 92H169.115C155.798 92 145 81.3253 145 68.1533C145 63.9402 146.106 59.9854 148.045 56.5537V56.5505Z" fill="white"/>
<path d="M186.302 31.0842C185.241 31.0842 184.381 30.0189 184.381 28.7047C184.381 27.3905 185.241 26.3252 186.302 26.3252C187.363 26.3252 188.223 27.3905 188.223 28.7047C188.223 30.0189 187.363 31.0842 186.302 31.0842Z" fill="#242424"/>
<path d="M206.473 32.9883L201.67 32.9883" stroke="#EAFF84" stroke-width="7" stroke-linecap="round"/>
<path d="M180.539 32.9883H175.736" stroke="#EAFF84" stroke-width="7" stroke-linecap="round"/>
<path d="M195.907 31.0842C194.846 31.0842 193.986 30.0189 193.986 28.7047C193.986 27.3905 194.846 26.3252 195.907 26.3252C196.968 26.3252 197.828 27.3905 197.828 28.7047C197.828 30.0189 196.968 31.0842 195.907 31.0842Z" fill="#242424"/>
</g>
<g clip-path="url(#clip2_2300_27650)">
<path d="M164.996 57.8835C161.488 51.6013 160.488 44.2806 161.734 37.193C162.048 35.4084 162.214 33.5686 162.214 31.6908C162.214 14.1879 148.018 0 130.501 0H111.499C93.9822 0 79.7863 14.1879 79.7863 31.695C79.7863 33.5729 79.9517 35.4084 80.2655 37.1972C81.5125 44.2806 80.5115 51.6056 77.0039 57.8878C74.4548 62.4489 73 67.7095 73 73.305C73 90.8078 87.196 105 104.713 105H137.287C154.8 105 169 90.8121 169 73.305C169 67.7053 167.545 62.4489 164.996 57.8878V57.8835Z" fill="#0FD380"/>
<path d="M127.24 23.1197C128.565 23.1197 129.64 21.8258 129.64 20.2298C129.64 18.6337 128.565 17.3398 127.24 17.3398C125.914 17.3398 124.84 18.6337 124.84 20.2298C124.84 21.8258 125.914 23.1197 127.24 23.1197Z" fill="#242424"/>
<path d="M100.84 26.0088L106.6 26.0088" stroke="#EAFF84" stroke-width="7" stroke-linecap="round"/>
<path d="M135.398 26.0088H141.158" stroke="#EAFF84" stroke-width="7" stroke-linecap="round"/>
<path d="M114.759 23.1197C116.085 23.1197 117.159 21.8258 117.159 20.2298C117.159 18.6337 116.085 17.3398 114.759 17.3398C113.434 17.3398 112.359 18.6337 112.359 20.2298C112.359 21.8258 113.434 23.1197 114.759 23.1197Z" fill="#242424"/>
</g>
<defs>
<clipPath id="clip0_2300_27650">
<rect width="73" height="79" fill="white" transform="translate(24 13)"/>
</clipPath>
<clipPath id="clip1_2300_27650">
<rect width="73" height="79" fill="white" transform="matrix(-1 0 0 1 218 13)"/>
</clipPath>
<clipPath id="clip2_2300_27650">
<rect width="96" height="105" fill="white" transform="translate(73)"/>
</clipPath>
</defs>
</svg>
