<svg width="28" height="28" viewBox="0 0 28 28" fill="none" xmlns="http://www.w3.org/2000/svg">
<rect width="28" height="28" rx="14" fill="#8B8B8B"/>
<path d="M8.66732 8.66659H10.6673L12.0007 7.33325H16.0007L17.334 8.66659H19.334C19.6876 8.66659 20.0267 8.80706 20.2768 9.05711C20.5268 9.30716 20.6673 9.6463 20.6673 9.99992V17.9999C20.6673 18.3535 20.5268 18.6927 20.2768 18.9427C20.0267 19.1928 19.6876 19.3333 19.334 19.3333H8.66732C8.3137 19.3333 7.97456 19.1928 7.72451 18.9427C7.47446 18.6927 7.33398 18.3535 7.33398 17.9999V9.99992C7.33398 9.6463 7.47446 9.30716 7.72451 9.05711C7.97456 8.80706 8.3137 8.66659 8.66732 8.66659ZM14.0007 10.6666C13.1166 10.6666 12.2687 11.0178 11.6436 11.6429C11.0185 12.268 10.6673 13.1159 10.6673 13.9999C10.6673 14.884 11.0185 15.7318 11.6436 16.3569C12.2687 16.9821 13.1166 17.3333 14.0007 17.3333C14.8847 17.3333 15.7326 16.9821 16.3577 16.3569C16.9828 15.7318 17.334 14.884 17.334 13.9999C17.334 13.1159 16.9828 12.268 16.3577 11.6429C15.7326 11.0178 14.8847 10.6666 14.0007 10.6666ZM14.0007 11.9999C14.5311 11.9999 15.0398 12.2106 15.4149 12.5857C15.7899 12.9608 16.0007 13.4695 16.0007 13.9999C16.0007 14.5304 15.7899 15.0391 15.4149 15.4141C15.0398 15.7892 14.5311 15.9999 14.0007 15.9999C13.4702 15.9999 12.9615 15.7892 12.5864 15.4141C12.2114 15.0391 12.0007 14.5304 12.0007 13.9999C12.0007 13.4695 12.2114 12.9608 12.5864 12.5857C12.9615 12.2106 13.4702 11.9999 14.0007 11.9999Z" fill="#F7F7F7"/>
</svg>
