<svg width="24" height="24" viewBox="0 0 24 24" fill="none" xmlns="http://www.w3.org/2000/svg">
<path d="M16.0004 7C16.0004 9.20914 14.2096 11 12.0004 11C9.79128 11 8.00041 9.20914 8.00041 7C8.00041 4.79086 9.79128 3 12.0004 3C14.2096 3 16.0004 4.79086 16.0004 7Z" fill="#DFDFDF"/>
<path d="M5.39662 16.6661C6.05375 13.708 8.91451 12 11.9447 12H12.0561C15.0863 12 17.9471 13.708 18.6042 16.6661C18.7692 17.4087 18.8991 18.1979 18.961 19.0009C19.0034 19.5515 18.5527 20 18.0004 20H6.00041C5.44813 20 4.99746 19.5515 5.03988 19.0009C5.10172 18.1979 5.23165 17.4087 5.39662 16.6661Z" fill="#DFDFDF"/>
</svg>
