<svg width="24" height="24" viewBox="0 0 24 24" fill="none" xmlns="http://www.w3.org/2000/svg">
<g clip-path="url(#clip0_614_13591)">
<path d="M19.0711 8.14282H10.0711C9.00603 8.14282 8.14258 9.00627 8.14258 10.0714V19.0714C8.14258 20.1365 9.00603 21 10.0711 21H19.0711C20.1362 21 20.9997 20.1365 20.9997 19.0714V10.0714C20.9997 9.00627 20.1362 8.14282 19.0711 8.14282Z" fill="#DFDFDF"/>
<path fill-rule="evenodd" clip-rule="evenodd" d="M4.92857 3H13.9286C14.9937 3 15.8571 3.86345 15.8571 4.92857V6.53571H10.0714C8.11871 6.53571 6.53571 8.11871 6.53571 10.0714V15.8571H4.92857C3.86345 15.8571 3 14.9937 3 13.9286V4.92857C3 3.86345 3.86345 3 4.92857 3Z" fill="#DFDFDF"/>
</g>
<defs>
<clipPath id="clip0_614_13591">
<rect width="18" height="18" fill="white" transform="translate(3 3)"/>
</clipPath>
</defs>
</svg>
