<svg width="112" height="121" viewBox="0 0 112 121" fill="none" xmlns="http://www.w3.org/2000/svg">
<g clip-path="url(#clip0_2309_27853)">
<path d="M108.407 68.7649L107.507 69.2006C107.178 68.522 106.828 67.8552 106.458 67.2012L106.329 66.9721V66.9649C106.029 66.424 105.744 65.8768 105.475 65.3238L106.375 64.8865C105.773 63.6498 105.252 62.3832 104.81 61.0936L103.864 61.4177C103.407 60.0824 103.032 58.7236 102.737 57.3485L103.715 57.1393C103.429 55.8016 103.221 54.4475 103.091 53.0838L102.095 53.179C101.962 51.782 101.907 50.3758 101.93 48.9675L102.929 48.9835C102.951 47.6194 103.047 46.2527 103.217 44.8901L102.224 44.7668C102.311 44.0714 102.416 43.3773 102.539 42.6851C102.629 42.1788 102.709 41.6685 102.777 41.1545L103.768 41.2861C103.907 40.2421 104.001 39.1835 104.048 38.1127L103.049 38.0688C103.071 37.5553 103.083 37.0389 103.083 36.5198C103.083 35.8465 103.064 35.1777 103.026 34.5138L104.025 34.4575C103.946 33.0697 103.79 31.7026 103.559 30.3604L102.573 30.5299C102.345 29.2019 102.042 27.8991 101.668 26.6258L102.628 26.3444C102.239 25.0177 101.775 23.7221 101.243 22.4622L100.322 22.8517C99.7991 21.6158 99.2078 20.4152 98.5523 19.2545L99.423 18.7627C98.7455 17.563 98.0015 16.405 97.1958 15.2934L96.3861 15.8802C95.6007 14.7966 94.7551 13.7583 93.854 12.7701L94.5929 12.0963C93.667 11.0809 92.6843 10.117 91.6496 9.2096L90.9902 9.96143C89.9861 9.08085 88.9318 8.25486 87.8319 7.4882L88.4037 6.66783C87.279 5.88383 86.108 5.1602 84.8955 4.50172L84.4182 5.38048C83.2477 4.74479 82.0375 4.17151 80.7923 3.66517L81.1689 2.73882C79.903 2.2241 78.6018 1.77668 77.2699 1.40108L76.9985 2.36354C75.721 2.00328 74.4143 1.71089 73.0826 1.49061L73.2459 0.504016C71.9026 0.281804 70.5347 0.13102 69.1465 0.0557578L69.0924 1.05429C68.4277 1.01826 67.7582 1 67.0842 1H65.2368V0H61.5421V1H57.8474V0H54.1526V1H50.4579V0H46.7632V1H44.9158C44.2418 1 43.5722 1.01826 42.9075 1.0543L42.8534 0.0557656C41.465 0.131039 40.0971 0.281846 38.7537 0.504095L38.9169 1.49068C37.5852 1.711 36.2784 2.00344 35.0008 2.36376L34.7294 1.40131C33.3974 1.77697 32.0961 2.22447 30.8301 2.73929L31.2068 3.66562C29.9615 4.17205 28.7512 4.74543 27.5807 5.38124L27.1034 4.5025C25.8908 5.1611 24.7198 5.88486 23.595 6.66901L24.1669 7.48933C23.067 8.25613 22.0126 9.08226 21.0086 9.963L20.3491 9.21122C19.3144 10.1188 18.3317 11.0828 17.4058 12.0984L18.1448 12.7721C17.2437 13.7605 16.3981 14.799 15.6128 15.8828L14.8031 15.296C13.9975 16.4078 13.2535 17.566 12.5761 18.7659L13.4469 19.2575C12.7915 20.4184 12.2002 21.6191 11.6777 22.8552L10.7566 22.4658C10.224 23.7258 9.76083 25.0216 9.37182 26.3484L10.3314 26.6298C9.95809 27.9032 9.655 29.2061 9.42657 30.5343L8.44104 30.3648C8.21019 31.7071 8.05349 33.0743 7.97526 34.4623L8.97368 34.5185C8.93626 35.1824 8.91729 35.8513 8.91729 36.5247C8.91729 37.044 8.92872 37.5603 8.95128 38.0737L7.95224 38.1176C7.99929 39.1881 8.09342 40.2461 8.23217 41.291L9.22346 41.1593C9.29164 41.6728 9.3709 42.183 9.46094 42.6899L108.407 68.7649ZM108.407 68.7649C109.078 70.1516 109.663 71.5866 110.156 73.0635L109.207 73.3797C109.679 74.7966 110.064 76.253 110.354 77.7428L111.335 77.5517C111.628 79.0551 111.827 80.5914 111.926 82.1547L110.928 82.2182C110.976 82.9644 111 83.7169 111 84.4753C111 85.1486 110.981 85.8175 110.944 86.4814L111.942 86.5377C111.864 87.9256 111.707 89.2928 111.476 90.6351L110.491 90.4656C110.262 91.7936 109.959 93.0965 109.586 94.3699L110.545 94.6513C110.156 95.9781 109.693 97.2738 109.16 98.5338L108.239 98.1443C107.717 99.3803 107.125 100.581 106.47 101.742L107.341 102.234C106.663 103.433 105.919 104.592 105.113 105.703L104.304 105.116C103.518 106.2 102.673 107.239 101.772 108.227L102.511 108.901C101.585 109.916 100.602 110.88 99.5673 111.788L98.9079 111.036C97.9038 111.917 96.8494 112.743 95.7496 113.51L96.3215 114.33C95.1968 115.114 94.0258 115.838 92.8133 116.497L92.336 115.618C91.1655 116.254 89.9552 116.827 88.71 117.334L89.0868 118.26C87.8208 118.775 86.5196 119.223 85.1877 119.598L84.9161 118.636C83.6385 118.996 82.3318 119.289 81.0002 119.509L81.1635 120.496C79.8201 120.718 78.4522 120.869 77.0639 120.944L77.0097 119.946C76.3451 119.982 75.6755 120 75.0015 120H73.1013V121H69.3011V120H65.5007V121H61.7005V120H57.9002V121H54.0998V120H50.2995V121H46.4992V120H42.6989V121H38.8986V120H36.9985C36.3245 120 35.6549 119.982 34.9903 119.946L34.9361 120.944C33.5478 120.869 32.1799 120.718 30.8365 120.496L30.9998 119.509C29.6681 119.289 28.3614 118.996 27.0838 118.636L26.8123 119.598C25.4804 119.223 24.1791 118.775 22.9132 118.26L23.29 117.334C22.0447 116.827 20.8345 116.254 19.664 115.618L19.1866 116.497C17.9742 115.838 16.8032 115.114 15.6785 114.33L16.2504 113.51C15.1506 112.743 14.0962 111.917 13.0922 111.036L12.4327 111.788C11.3981 110.88 10.4153 109.916 9.48949 108.901L10.2285 108.227C9.32742 107.239 8.48183 106.2 7.69649 105.116L6.88675 105.703C6.08114 104.591 5.33714 103.433 4.65966 102.234L5.53043 101.742C4.87497 100.581 4.28362 99.3803 3.76106 98.1443L2.84 98.5337C2.3073 97.2738 1.84404 95.9781 1.45495 94.6513L2.41454 94.3699C2.04111 93.0965 1.73794 91.7936 1.50946 90.4655L0.523937 90.6351C0.293001 89.2928 0.13625 87.9256 0.057993 86.5377L1.05641 86.4814C1.01897 85.8175 1 85.1486 1 84.4753C1 83.7171 1.02412 82.9645 1.07163 82.2183L0.0736487 82.1548C0.173141 80.5919 0.372406 79.0555 0.66517 77.5518L1.64674 77.7429C1.93676 76.2534 2.32116 74.7969 2.79349 73.3798L1.84481 73.0636C2.33709 71.5867 2.92223 70.1515 3.59331 68.7649L4.49343 69.2006C4.82189 68.5219 5.17155 67.8551 5.54155 67.2012L5.54175 67.2009C5.88993 66.5849 6.21754 65.9605 6.52476 65.3286L5.62542 64.8914C6.22667 63.6547 6.74755 62.3881 7.18945 61.0984L8.13546 61.4225C8.59298 60.0872 8.96808 58.7284 9.26232 57.3533L8.28446 57.1441C8.57071 55.8064 8.77839 54.4522 8.90892 53.0886L9.90437 53.1839C10.0381 51.7867 10.093 50.3805 10.0705 48.9724L9.07066 48.9883C9.04892 47.6241 8.95269 46.2574 8.78335 44.8949M108.407 68.7649L8.78335 44.8949M8.78335 44.8949L9.77571 44.7716C9.6893 44.0764 9.58435 43.3824 9.46104 42.6905L8.78335 44.8949ZM107.327 66.7051H107.329V66.7075H107.322L107.327 66.7051Z" fill="#F7F7F7" stroke="#DFDFDF" stroke-width="2" stroke-dasharray="4 4"/>
<path d="M62.9545 26.7815C64.5647 26.7815 65.87 25.3008 65.87 23.4743C65.87 21.6477 64.5647 20.167 62.9545 20.167C61.3444 20.167 60.0391 21.6477 60.0391 23.4743C60.0391 25.3008 61.3444 26.7815 62.9545 26.7815Z" fill="#C1C1C1"/>
<path d="M32.4805 29.9727L39.2005 29.9727" stroke="#DFDFDF" stroke-width="7" stroke-linecap="round"/>
<path d="M72.8008 29.9727H79.5208" stroke="#DFDFDF" stroke-width="7" stroke-linecap="round"/>
<path d="M48.3881 26.7815C49.9983 26.7815 51.3036 25.3008 51.3036 23.4743C51.3036 21.6477 49.9983 20.167 48.3881 20.167C46.7779 20.167 45.4727 21.6477 45.4727 23.4743C45.4727 25.3008 46.7779 26.7815 48.3881 26.7815Z" fill="#C1C1C1"/>
</g>
<defs>
<clipPath id="clip0_2309_27853">
<rect width="112" height="121" fill="white"/>
</clipPath>
</defs>
</svg>
