<svg width="28" height="30" viewBox="0 0 28 30" fill="none" xmlns="http://www.w3.org/2000/svg">
<g filter="url(#filter0_d_614_13637)">
<path d="M19.1429 12.8571H14.8571V17.1429C14.8571 17.3702 14.7668 17.5882 14.6061 17.7489C14.4453 17.9097 14.2273 18 14 18C13.7727 18 13.5547 17.9097 13.3939 17.7489C13.2332 17.5882 13.1429 17.3702 13.1429 17.1429V12.8571H8.85714C8.62981 12.8571 8.4118 12.7668 8.25105 12.6061C8.09031 12.4453 8 12.2273 8 12C8 11.7727 8.09031 11.5547 8.25105 11.3939C8.4118 11.2332 8.62981 11.1429 8.85714 11.1429H13.1429V6.85714C13.1429 6.62981 13.2332 6.4118 13.3939 6.25105C13.5547 6.09031 13.7727 6 14 6C14.2273 6 14.4453 6.09031 14.6061 6.25105C14.7668 6.4118 14.8571 6.62981 14.8571 6.85714V11.1429H19.1429C19.3702 11.1429 19.5882 11.2332 19.7489 11.3939C19.9097 11.5547 20 11.7727 20 12C20 12.2273 19.9097 12.4453 19.7489 12.6061C19.5882 12.7668 19.3702 12.8571 19.1429 12.8571Z" fill="white"/>
</g>
<defs>
<filter id="filter0_d_614_13637" x="-2" y="0" width="32" height="32" filterUnits="userSpaceOnUse" color-interpolation-filters="sRGB">
<feFlood flood-opacity="0" result="BackgroundImageFix"/>
<feColorMatrix in="SourceAlpha" type="matrix" values="0 0 0 0 0 0 0 0 0 0 0 0 0 0 0 0 0 0 127 0" result="hardAlpha"/>
<feOffset dy="4"/>
<feGaussianBlur stdDeviation="2"/>
<feComposite in2="hardAlpha" operator="out"/>
<feColorMatrix type="matrix" values="0 0 0 0 0 0 0 0 0 0 0 0 0 0 0 0 0 0 0.25 0"/>
<feBlend mode="normal" in2="BackgroundImageFix" result="effect1_dropShadow_614_13637"/>
<feBlend mode="normal" in="SourceGraphic" in2="effect1_dropShadow_614_13637" result="shape"/>
</filter>
</defs>
</svg>
