<svg width="375" height="812" viewBox="0 0 375 812" fill="none" xmlns="http://www.w3.org/2000/svg">
<rect width="375" height="812" fill="#F7F7F7"/>
<mask id="mask0_2432_5816" style="mask-type:alpha" maskUnits="userSpaceOnUse" x="0" y="0" width="375" height="500">
<rect width="375" height="500" fill="#D9D9D9"/>
</mask>
<g mask="url(#mask0_2432_5816)">
<circle cx="187.5" cy="154.5" r="307.5" fill="#0FD380"/>
<g opacity="0.12" filter="url(#filter0_f_2432_5816)">
<ellipse cx="187.5" cy="462" rx="62.5" ry="38" fill="#00A775"/>
</g>
<path d="M246.532 434.993C244.793 430.018 241.76 425.21 237.931 421.834C232.706 417.23 226.556 411.422 226.556 404.459V403.156C226.556 379.317 206.811 360 182.452 360H175.534C152.414 360 133.668 378.337 133.668 400.964V420.253C133.668 424.239 133.122 428.196 132.068 432.043C128.813 437.453 127 443.426 127 449.696C127 474.209 154.532 494.081 188.5 494.081C222.468 494.081 250 474.209 250 449.696C250 444.545 248.77 439.598 246.532 434.993Z" fill="white"/>
<path d="M157.473 418.73C158.998 418.73 160.244 417.238 160.244 415.405C160.244 413.573 159.008 412.081 157.473 412.081C155.939 412.081 154.703 413.573 154.703 415.405C154.703 417.238 155.939 418.73 157.473 418.73Z" fill="#0D0B0A"/>
<path d="M169.661 422.054C171.186 422.054 172.431 420.562 172.431 418.73C172.431 416.897 171.196 415.405 169.661 415.405C168.126 415.405 166.891 416.897 166.891 418.73C166.891 420.562 168.126 422.054 169.661 422.054Z" fill="#0D0B0A"/>
<ellipse cx="149.3" cy="419.907" rx="4.98649" ry="3.32432" transform="rotate(15 149.3 419.907)" fill="#FFB894"/>
<ellipse cx="175.894" cy="426.555" rx="4.98649" ry="3.32432" transform="rotate(15 175.894 426.555)" fill="#FFB894"/>
<path d="M169.297 150.165V165.465C169.297 166.291 169.965 166.961 170.79 166.961H194.465V149.277L182.193 137.234L169.297 150.168V150.165Z" fill="#F7F7F7"/>
<path d="M194.355 148.862V166.993H206.497C207.682 166.993 208.646 166.025 208.646 164.831V148.853C208.646 148.853 194.112 148.862 194.355 148.862Z" fill="#EFEFEA"/>
<path d="M179.617 131.035L193.566 131.856C194.476 131.856 195.349 132.223 195.987 132.871L211.133 146.806L196.156 146.868L179.617 131.035Z" fill="#9CEFCA"/>
<path d="M196.157 146.803V151.533H210.05C210.65 151.533 211.135 150.941 211.135 150.209V146.803C211.135 146.803 196.015 146.803 196.157 146.803Z" fill="#81E2B4"/>
<path d="M164 150.132H169.289L182.635 136.763L179.991 134.116C179.991 134.116 164 150.295 164 150.132Z" fill="#9CEFCA"/>
<path d="M164 150.168L179.575 134.566L196.154 151.471V146.848L181.156 131.551C180.438 130.816 179.258 130.813 178.534 131.545L164 146.079" fill="#D4F7E8"/>
<path d="M175.711 154.35L177.508 155.236L186.759 152.715L184.962 151.83L175.711 154.35Z" fill="#D4F7E8"/>
<path d="M184.641 151.853H177.646C177.138 151.853 176.727 152.265 176.727 152.774V159.977L185.277 157.427L184.644 151.853H184.641Z" fill="#E0E0E0"/>
<path d="M184.962 166.031L175.711 168.551V154.35L184.962 151.83V166.031Z" fill="#D4F7E8"/>
<path d="M186.759 166.916L177.508 169.436V155.235L186.759 152.715V166.916Z" fill="#9CEFCA"/>
<path d="M177.508 169.436L175.711 168.551V154.35L177.508 155.235V169.436Z" fill="#C4F2DD"/>
<path d="M179.282 162.865C179.791 162.865 180.204 162.451 180.204 161.941C180.204 161.43 179.791 161.017 179.282 161.017C178.772 161.017 178.359 161.43 178.359 161.941C178.359 162.451 178.772 162.865 179.282 162.865Z" fill="#D4F7E8"/>
<path fill-rule="evenodd" clip-rule="evenodd" d="M198.983 193.04C198.983 193.04 198.983 193.04 198.977 194.917L198.983 193.04C200.023 193.043 200.863 193.883 200.863 194.917V207.567C200.863 208.604 200.019 209.444 198.977 209.444H172.682C171.64 209.444 170.796 208.604 170.796 207.567V194.917C170.796 194.341 171.062 193.797 171.517 193.441C171.827 193.198 172.142 193.117 172.176 193.108C172.177 193.108 172.178 193.108 172.178 193.108C172.27 193.082 172.344 193.069 172.377 193.064C172.45 193.052 172.509 193.046 172.534 193.044C172.591 193.038 172.645 193.036 172.68 193.034C172.757 193.03 172.853 193.028 172.956 193.025C173.167 193.021 173.464 193.017 173.829 193.014C174.563 193.008 175.6 193.004 176.836 193.002C179.31 192.998 182.596 193.001 185.876 193.006C189.156 193.012 192.433 193.02 194.89 193.027C196.118 193.031 197.141 193.034 197.857 193.036C198.216 193.037 198.497 193.038 198.689 193.039L198.983 193.04ZM197.09 196.789C196.472 196.787 195.724 196.785 194.879 196.783C192.423 196.776 189.148 196.767 185.869 196.762C182.59 196.756 179.309 196.753 176.842 196.757C175.969 196.759 175.2 196.761 174.569 196.765V205.689H197.09V196.789ZM136.186 194.885C136.186 193.848 137.031 193.007 138.073 193.007H164.694C165.736 193.007 166.58 193.848 166.58 194.885V207.656C166.58 208.693 165.736 209.534 164.694 209.534C163.652 209.534 162.807 208.693 162.807 207.656V196.763H152.588V207.697C152.588 208.734 151.743 209.574 150.701 209.574C149.659 209.574 148.814 208.734 148.814 207.697V196.763H138.073C137.031 196.763 136.186 195.922 136.186 194.885ZM207.186 196.763C206.144 196.763 205.299 195.922 205.299 194.885C205.299 193.848 206.144 193.007 207.186 193.007H233.807C234.849 193.007 235.694 193.848 235.694 194.885V207.559C235.694 208.596 234.849 209.436 233.807 209.436C232.765 209.436 231.92 208.596 231.92 207.559V196.763H221.701V207.599C221.701 208.636 220.856 209.477 219.814 209.477C218.772 209.477 217.928 208.636 217.928 207.599V196.763H207.186ZM135.5 213.371C135.5 212.334 136.345 211.494 137.387 211.494C141.728 211.494 143.946 211.923 146.098 212.341L146.12 212.346C148.136 212.738 150.095 213.119 154.091 213.119C158.087 213.119 160.043 212.738 162.058 212.346L162.081 212.341C164.232 211.922 166.45 211.494 170.796 211.494C175.141 211.494 177.359 211.922 179.51 212.341L179.533 212.346C181.548 212.738 183.505 213.119 187.5 213.119C191.495 213.119 193.452 212.738 195.467 212.346L195.49 212.341C197.641 211.922 199.859 211.494 204.204 211.494C208.55 211.494 210.77 211.922 212.922 212.341L212.946 212.346C214.962 212.739 216.918 213.119 220.909 213.119C224.9 213.119 226.859 212.738 228.876 212.346L228.899 212.341C231.052 211.922 233.272 211.494 237.613 211.494C238.655 211.494 239.5 212.334 239.5 213.371C239.5 214.408 238.655 215.249 237.613 215.249C233.622 215.249 231.663 215.63 229.646 216.022L229.623 216.027C227.88 216.366 226.093 216.712 223.171 216.831V219.718C225.542 219.721 227.813 219.725 229.608 219.729C230.737 219.731 231.677 219.733 232.336 219.734L233.37 219.737C233.37 219.737 233.37 219.737 233.366 221.614L233.37 219.737C234.411 219.739 235.253 220.579 235.253 221.614V229.687C235.253 230.724 234.408 231.564 233.366 231.564H209.195C208.153 231.564 207.309 230.724 207.309 229.687V221.614C207.309 220.924 207.69 220.289 208.301 219.961C208.417 219.904 208.608 219.83 208.68 219.808C208.728 219.795 208.808 219.777 208.841 219.77C208.908 219.757 208.961 219.751 208.985 219.748C209.037 219.742 209.079 219.739 209.098 219.738C209.141 219.735 209.183 219.734 209.213 219.733C209.279 219.731 209.362 219.729 209.456 219.727C209.647 219.725 209.918 219.722 210.253 219.72C210.926 219.716 211.878 219.714 213.015 219.713C214.802 219.711 217.052 219.711 219.398 219.713V216.856C216.022 216.769 214.084 216.394 212.198 216.027L212.176 216.023C210.159 215.63 208.201 215.249 204.204 215.249C200.209 215.249 198.253 215.63 196.238 216.022L196.215 216.027C194.24 216.411 192.209 216.804 188.529 216.866V219.728H199.516C200.45 219.728 201.243 220.409 201.382 221.328C201.52 222.247 200.962 223.129 200.069 223.401L185.573 227.825H199.336C200.378 227.825 201.223 228.666 201.223 229.703C201.223 230.74 200.378 231.581 199.336 231.581H172.985C172.051 231.581 171.257 230.901 171.119 229.981C170.98 229.062 171.539 228.18 172.432 227.908L186.928 223.484H173.017C171.975 223.484 171.131 222.643 171.131 221.606C171.131 220.569 171.975 219.728 173.017 219.728H184.755V216.809C182.113 216.673 180.43 216.347 178.785 216.027L178.762 216.022C176.747 215.63 174.791 215.249 170.796 215.249C166.8 215.249 164.844 215.63 162.829 216.022L162.806 216.027C160.807 216.416 158.75 216.814 154.981 216.869V229.614C154.981 230.651 154.137 231.491 153.095 231.491C152.053 231.491 151.208 230.651 151.208 229.614V216.802C148.644 216.662 146.99 216.342 145.374 216.027L145.349 216.022C143.334 215.63 141.377 215.249 137.387 215.249C136.345 215.249 135.5 214.408 135.5 213.371ZM231.479 223.488C230.942 223.487 230.308 223.485 229.6 223.484C227.343 223.48 224.332 223.474 221.318 223.471C218.304 223.467 215.288 223.465 213.019 223.468C212.286 223.469 211.632 223.47 211.082 223.472V227.809H231.479V223.488Z" fill="#EAFF84"/>
<path d="M121.255 251.022V252.1H117.048V256.612H115.735V252.1H111.599V251.022H114.106C114.476 249.604 114.546 248.543 114.575 247.752H112.372V246.709H115.853V247.249C115.853 248.045 115.853 249.276 115.431 251.022H118.524C118.835 249.616 118.882 248.555 118.888 247.752H116.603V246.709H120.177V247.354C120.177 248.168 120.177 249.358 119.849 251.022H121.255ZM131.386 250.331V251.362H127.191V252.159H130.179V254.76H124.155V255.534H130.472V256.53H122.878V253.823H128.902V253.143H122.866V252.159H125.89V251.362H121.73V250.331H131.386ZM130.144 246.358V249.663H122.948V246.358H130.144ZM124.226 247.377V248.643H128.843V247.377H124.226ZM140.673 246.03V256.635H139.361V246.03H140.673ZM134.966 246.803C136.56 246.803 137.72 248.256 137.732 250.542C137.72 252.85 136.56 254.292 134.966 254.292C133.361 254.292 132.201 252.85 132.201 250.542C132.201 248.256 133.361 246.803 134.966 246.803ZM134.966 247.975C134.064 247.975 133.455 248.924 133.455 250.542C133.455 252.17 134.064 253.12 134.966 253.12C135.857 253.12 136.466 252.17 136.466 250.542C136.466 248.924 135.857 247.975 134.966 247.975ZM151.66 250.272V251.303H141.992V250.272H151.66ZM150.511 248.561V249.592H143.222V246.299H150.418V247.342H144.523V248.561H150.511ZM150.441 252.03V254.69H144.418V255.499H150.734V256.518H143.14V253.752H149.164V253.014H143.129V252.03H150.441ZM155.557 246.768C157.232 246.756 158.463 247.823 158.475 249.323C158.463 250.834 157.232 251.889 155.557 251.889C153.893 251.889 152.65 250.834 152.65 249.323C152.65 247.823 153.893 246.756 155.557 246.768ZM155.557 247.893C154.631 247.893 153.939 248.444 153.939 249.323C153.939 250.213 154.631 250.752 155.557 250.752C156.494 250.752 157.197 250.213 157.197 249.323C157.197 248.444 156.494 247.893 155.557 247.893ZM160.947 246.03V256.635H159.646V246.03H160.947ZM152.17 253.354C154.08 253.354 156.728 253.331 159.014 253.002L159.119 253.952C156.74 254.409 154.197 254.42 152.334 254.42L152.17 253.354ZM173.733 246.03V252.323H172.432V249.733H170.627V248.667H172.432V246.03H173.733ZM170.147 252.592C172.397 252.592 173.768 253.331 173.768 254.608C173.768 255.885 172.397 256.624 170.147 256.624C167.909 256.624 166.538 255.885 166.549 254.608C166.538 253.331 167.909 252.592 170.147 252.592ZM170.147 253.588C168.67 253.588 167.838 253.94 167.838 254.608C167.838 255.264 168.67 255.616 170.147 255.616C171.623 255.616 172.467 255.264 172.467 254.608C172.467 253.94 171.623 253.588 170.147 253.588ZM168.752 247.846C168.752 249.135 169.608 250.436 171.248 250.987L170.592 252.018C169.414 251.62 168.577 250.811 168.12 249.815C167.651 250.946 166.766 251.848 165.506 252.299L164.827 251.268C166.526 250.682 167.428 249.252 167.428 247.858V247.776H165.225V246.721H170.944V247.776H168.752V247.846ZM179.001 248.573C178.989 250.518 180.008 252.463 181.731 253.202L180.958 254.245C179.739 253.682 178.842 252.557 178.356 251.174C177.87 252.668 176.962 253.887 175.673 254.491L174.876 253.401C176.645 252.639 177.676 250.612 177.676 248.573V246.885H179.001V248.573ZM183.805 246.03V256.635H182.493V246.03H183.805ZM196.333 250.846V251.877H193.192V254.303H197.411V255.37H187.732V254.303H191.903V251.877H188.903V246.815H196.251V247.858H190.204V250.846H196.333ZM201.671 248.327C201.671 249.487 202.527 250.647 204.202 251.104L203.593 252.147C202.38 251.795 201.513 251.057 201.038 250.131C200.57 251.151 199.691 251.948 198.449 252.323L197.816 251.303C199.48 250.823 200.37 249.592 200.37 248.327V248.245H198.156V247.213H200.37V245.995H201.683V247.213H203.886V248.245H201.671V248.327ZM206.218 246.03V248.713H207.695V249.815H206.218V252.51H204.917V246.03H206.218ZM206.218 252.991V256.635H204.917V254.034H199.163V252.991H206.218ZM211.427 246.768C213.103 246.756 214.334 247.823 214.345 249.323C214.334 250.834 213.103 251.889 211.427 251.889C209.763 251.889 208.521 250.834 208.521 249.323C208.521 247.823 209.763 246.756 211.427 246.768ZM211.427 247.893C210.502 247.893 209.81 248.444 209.81 249.323C209.81 250.213 210.502 250.752 211.427 250.752C212.365 250.752 213.068 250.213 213.068 249.323C213.068 248.444 212.365 247.893 211.427 247.893ZM216.818 246.03V256.635H215.517V246.03H216.818ZM208.041 253.354C209.951 253.354 212.599 253.331 214.884 253.002L214.99 253.952C212.611 254.409 210.068 254.42 208.205 254.42L208.041 253.354ZM225.104 246.51V247.002C225.104 247.641 225.104 248.684 224.74 250.096H227.658C227.928 249.018 227.981 248.198 227.998 247.553H225.795V246.51H229.264V247.073C229.264 247.782 229.264 248.778 228.971 250.096H230.389V251.163H226.182V252.674H229.182V256.483H221.916V252.674H224.893V251.163H220.732V250.096H223.428C223.727 248.995 223.803 248.168 223.826 247.553H221.623V246.51H225.104ZM223.193 253.694V255.452H227.881V253.694H223.193ZM235.68 246.194C238.094 246.194 239.489 246.838 239.5 248.01C239.489 249.194 238.094 249.827 235.68 249.838C233.266 249.827 231.86 249.194 231.86 248.01C231.86 246.838 233.266 246.194 235.68 246.194ZM235.68 247.155C234.063 247.155 233.219 247.459 233.231 248.01C233.219 248.596 234.063 248.866 235.68 248.866C237.321 248.866 238.153 248.596 238.153 248.01C238.153 247.459 237.321 247.155 235.68 247.155ZM240.52 250.401V251.444H230.864V250.401H240.52ZM239.313 252.159V254.749H233.289V255.534H239.606V256.53H232.012V253.823H238.035V253.12H232V252.159H239.313ZM247.059 246.499C248.665 246.487 249.837 247.401 249.837 248.725C249.837 250.026 248.665 250.952 247.059 250.94C245.466 250.952 244.305 250.026 244.305 248.725C244.305 247.401 245.466 246.487 247.059 246.499ZM247.059 247.553C246.192 247.542 245.559 247.999 245.571 248.725C245.559 249.44 246.192 249.874 247.059 249.874C247.962 249.874 248.595 249.44 248.595 248.725C248.595 247.999 247.962 247.542 247.059 247.553ZM252.462 246.042V256.612H251.173V246.042H252.462ZM243.614 251.667C245.524 251.667 248.196 251.631 250.481 251.292L250.575 252.252C249.661 252.428 248.712 252.54 247.786 252.604V256.295H246.473V252.686C245.495 252.727 244.575 252.733 243.778 252.745L243.614 251.667ZM258.901 247.717V248.76H253.71V247.717H255.679V246.334H256.968V247.717H258.901ZM256.323 249.323C257.671 249.323 258.632 250.342 258.632 251.784C258.632 253.249 257.671 254.28 256.323 254.28C254.987 254.28 254.003 253.249 254.015 251.784C254.003 250.342 254.987 249.323 256.323 249.323ZM256.323 250.401C255.632 250.401 255.151 250.952 255.163 251.784C255.151 252.639 255.632 253.178 256.323 253.167C257.003 253.178 257.483 252.639 257.483 251.784C257.483 250.952 257.003 250.401 256.323 250.401ZM262.839 246.03V256.624H261.597V251.444H260.565V256.143H259.347V246.252H260.565V250.389H261.597V246.03H262.839Z" fill="white"/>
</g>
<defs>
<filter id="filter0_f_2432_5816" x="105" y="404" width="165" height="116" filterUnits="userSpaceOnUse" color-interpolation-filters="sRGB">
<feFlood flood-opacity="0" result="BackgroundImageFix"/>
<feBlend mode="normal" in="SourceGraphic" in2="BackgroundImageFix" result="shape"/>
<feGaussianBlur stdDeviation="10" result="effect1_foregroundBlur_2432_5816"/>
</filter>
</defs>
</svg>
