<svg width="24" height="24" viewBox="0 0 24 24" fill="none" xmlns="http://www.w3.org/2000/svg">
<path d="M17.1429 12.8571H12.8571V17.1429C12.8571 17.3702 12.7668 17.5882 12.6061 17.7489C12.4453 17.9097 12.2273 18 12 18C11.7727 18 11.5547 17.9097 11.3939 17.7489C11.2332 17.5882 11.1429 17.3702 11.1429 17.1429V12.8571H6.85714C6.62981 12.8571 6.4118 12.7668 6.25105 12.6061C6.09031 12.4453 6 12.2273 6 12C6 11.7727 6.09031 11.5547 6.25105 11.3939C6.4118 11.2332 6.62981 11.1429 6.85714 11.1429H11.1429V6.85714C11.1429 6.62981 11.2332 6.4118 11.3939 6.25105C11.5547 6.09031 11.7727 6 12 6C12.2273 6 12.4453 6.09031 12.6061 6.25105C12.7668 6.4118 12.8571 6.62981 12.8571 6.85714V11.1429H17.1429C17.3702 11.1429 17.5882 11.2332 17.7489 11.3939C17.9097 11.5547 18 11.7727 18 12C18 12.2273 17.9097 12.4453 17.7489 12.6061C17.5882 12.7668 17.3702 12.8571 17.1429 12.8571Z" fill="#6F6F6F"/>
</svg>
