<svg width="82" height="82" viewBox="0 0 82 82" fill="none" xmlns="http://www.w3.org/2000/svg">
<mask id="mask0_1440_47113" style="mask-type:alpha" maskUnits="userSpaceOnUse" x="0" y="0" width="82" height="82">
<circle cx="41" cy="41" r="41" fill="#EFEFEF"/>
</mask>
<g mask="url(#mask0_1440_47113)">
<circle cx="41" cy="41" r="41" fill="#EFEFEF"/>
<path d="M68 39.2016C68 28.598 59.2729 20 48.5102 20H33.4898C22.7271 20 14 28.598 14 39.2016C14 43.6177 15.5155 47.6857 18.0585 50.9314C19.2337 52.4308 19.2337 54.5692 18.0585 56.0687C15.5155 59.3143 14 63.3823 14 67.7984C14 78.402 22.7271 87 33.4898 87H48.5102C59.2729 87 68 78.402 68 67.7984C68 63.3823 66.4845 59.3143 63.9415 56.0687C62.7663 54.5692 62.7663 52.4308 63.9415 50.9314C66.4845 47.6857 68 43.6177 68 39.2016Z" fill="#DFDFDF"/>
<path d="M37.8776 35.0884C38.6837 35.0884 39.3372 34.3377 39.3372 33.4117C39.3372 32.4858 38.6837 31.7351 37.8776 31.7351C37.0715 31.7351 36.418 32.4858 36.418 33.4117C36.418 34.3377 37.0715 35.0884 37.8776 35.0884Z" fill="#242424"/>
<path d="M43.987 35.0886C44.7931 35.0886 45.4466 34.338 45.4466 33.412C45.4466 32.486 44.7931 31.7354 43.987 31.7354C43.1808 31.7354 42.5273 32.486 42.5273 33.412C42.5273 34.338 43.1808 35.0886 43.987 35.0886Z" fill="#242424"/>
<path d="M31.6309 37.9329L34.7174 37.9329" stroke="#F7F7F7" stroke-width="5" stroke-linecap="round"/>
<path d="M46.9961 37.9329L50.0826 37.9329" stroke="#F7F7F7" stroke-width="5" stroke-linecap="round"/>
</g>
</svg>
