<svg width="173" height="142" viewBox="0 0 173 142" fill="none" xmlns="http://www.w3.org/2000/svg">
<path d="M22.606 15.2255C22.7419 15.2255 22.8778 15.2359 23.0138 15.2516L22.3184 15.1575C22.7733 15.2203 23.202 15.3458 23.6255 15.5131L23.0033 15.2516C23.8137 15.5968 24.5666 16.0622 25.2673 16.5957L24.7392 16.1877C25.5339 16.8049 26.245 17.5161 26.8619 18.3058L26.4541 17.7776C27.0658 18.5777 27.573 19.4406 27.9704 20.3663L27.709 19.744C27.756 19.8538 27.7978 19.9688 27.8449 20.0787C28.1011 20.7324 28.42 21.2763 29.0474 21.6423C29.6069 21.9718 30.433 22.1078 31.0604 21.9038C31.6878 21.6999 32.3048 21.3076 32.6237 20.701C32.9427 20.0943 33.1361 19.3308 32.8851 18.6876C32.0747 16.6114 30.9088 14.7182 29.267 13.1911C27.4632 11.5124 25.1418 10.0742 22.6164 10.001C21.2465 9.95916 19.9394 11.2352 20.0022 12.6159C20.0649 14.0697 21.1524 15.1889 22.6164 15.2307L22.606 15.2255Z" fill="#FFBA97"/>
<path d="M2.94514 111.969C9.49697 113.2 16.5644 111.889 22.3036 108.43C23.4844 107.718 24.2111 106.174 23.4901 104.853C22.8443 103.665 21.2326 102.894 19.9692 103.659C18.7057 104.424 17.2561 105.14 15.8125 105.69C15.6774 105.74 15.5368 105.794 15.3965 105.844C15.9745 105.631 15.2782 105.878 15.2083 105.901C14.8584 106.011 14.509 106.116 14.1546 106.215C13.4085 106.421 12.6597 106.59 11.9026 106.726C11.1454 106.863 10.4545 106.955 9.72304 107.024C9.54262 107.044 9.35732 107.058 9.17727 107.073C9.83838 107.032 9.08814 107.067 9.00354 107.072C8.63927 107.085 8.27012 107.092 7.90694 107.089C6.36436 107.082 4.83195 106.925 3.31872 106.642C1.96168 106.385 0.548406 107.803 0.516115 109.127C0.476535 110.712 1.5053 111.691 2.95598 111.964L2.94514 111.969Z" fill="#FFBA97"/>
<path d="M149.918 80.5987C149.988 81.497 150.008 82.3902 149.968 83.2885C149.948 83.7402 149.903 84.1816 149.868 84.6333C149.823 85.1785 149.953 84.1037 149.848 84.7995C149.812 85.0228 149.777 85.2408 149.737 85.4641C149.577 86.3468 149.366 87.2192 149.095 88.076C148.959 88.5017 148.804 88.9223 148.653 89.3429C148.467 89.8466 148.859 88.8964 148.618 89.4312C148.513 89.6649 148.412 89.8985 148.302 90.127C147.73 91.3472 147.94 92.9881 149.2 93.6787C150.324 94.2914 152.026 94.0525 152.633 92.7492C154.395 88.9743 155.258 84.7891 154.932 80.5987C154.827 79.2487 153.853 77.935 152.423 78.0025C151.153 78.0596 149.797 79.15 149.913 80.5987H149.918Z" fill="#FFBA97"/>
<path d="M127.907 15.6767C133.158 13.2221 137.616 9.06122 140.651 4.01217C141.371 2.81181 140.938 0.997815 139.718 0.33035C138.497 -0.337115 136.917 0.0181492 136.151 1.29387C135.807 1.86983 135.442 2.43502 135.056 2.98406C134.962 3.11325 134.868 3.24243 134.779 3.37162C134.493 3.78071 134.988 3.10786 134.785 3.36624C134.566 3.64076 134.352 3.92066 134.128 4.1898C133.293 5.19638 132.391 6.13837 131.426 7.01038C131.192 7.22569 130.952 7.43024 130.712 7.63478C130.592 7.73706 130.467 7.83933 130.347 7.93622C129.862 8.33454 130.649 7.71014 130.352 7.93084C129.815 8.32378 129.288 8.72211 128.736 9.09352C127.63 9.82557 126.473 10.4715 125.273 11.0313C124.074 11.5911 123.631 13.5774 124.34 14.7131C125.169 16.0427 126.572 16.3011 127.907 15.6767Z" fill="#FFBA97"/>
<path d="M14 36C16.2091 36 18 34.2091 18 32C18 29.7909 16.2091 28 14 28C11.7909 28 10 29.7909 10 32C10 34.2091 11.7909 36 14 36Z" fill="#FF7B30"/>
<path d="M160 115C162.209 115 164 113.209 164 111C164 108.791 162.209 107 160 107C157.791 107 156 108.791 156 111C156 113.209 157.791 115 160 115Z" fill="#FF7B30"/>
<path d="M22 141C24.2091 141 26 139.209 26 137C26 134.791 24.2091 133 22 133C19.7909 133 18 134.791 18 137C18 139.209 19.7909 141 22 141Z" fill="#FF7B30"/>
<path d="M25.1208 53.2772L24.4985 53.2471C24.1347 53.227 23.8044 53.4582 23.6752 53.8151L23.4598 54.4284C23.2061 55.1423 22.2678 55.2026 21.9375 54.5239L21.6503 53.9408C21.4828 53.599 21.1286 53.413 20.7695 53.4783L20.152 53.5889C19.4388 53.7146 18.917 52.8902 19.3095 52.2517L19.6494 51.6988C19.8457 51.377 19.8217 50.9598 19.592 50.6632L19.1947 50.1555C18.7303 49.5673 19.1516 48.6825 19.8792 48.7228L20.5015 48.7529C20.8653 48.773 21.1956 48.5418 21.3248 48.1849L21.5402 47.5716C21.7939 46.8577 22.7322 46.7974 23.0625 47.4761L23.3497 48.0592C23.5172 48.401 23.8714 48.587 24.2305 48.5217L24.848 48.4111C25.5612 48.2854 26.083 49.1098 25.6905 49.7483L25.3506 50.3012C25.1543 50.623 25.1783 51.0402 25.408 51.3368L25.8053 51.8445C26.2697 52.4327 25.8484 53.3175 25.1208 53.2772Z" fill="#EFE77B"/>
<path d="M172.121 78.2772L171.499 78.2471C171.135 78.227 170.804 78.4582 170.675 78.8151L170.46 79.4284C170.206 80.1423 169.268 80.2026 168.938 79.5239L168.65 78.9408C168.483 78.599 168.129 78.413 167.77 78.4783L167.152 78.5889C166.439 78.7146 165.917 77.8902 166.31 77.2517L166.649 76.6988C166.846 76.377 166.822 75.9598 166.592 75.6632L166.195 75.1555C165.73 74.5673 166.152 73.6825 166.879 73.7228L167.501 73.7529C167.865 73.773 168.196 73.5418 168.325 73.1849L168.54 72.5716C168.794 71.8577 169.732 71.7974 170.062 72.4761L170.35 73.0592C170.517 73.401 170.871 73.587 171.23 73.5217L171.848 73.4111C172.561 73.2854 173.083 74.1098 172.69 74.7483L172.351 75.3012C172.154 75.623 172.178 76.0402 172.408 76.3368L172.805 76.8445C173.27 77.4327 172.848 78.3175 172.121 78.2772Z" fill="#EFE77B"/>
<path d="M12.1208 130.277L11.4985 130.247C11.1347 130.227 10.8044 130.458 10.6752 130.815L10.4598 131.428C10.2061 132.142 9.26784 132.203 8.93755 131.524L8.65033 130.941C8.48279 130.599 8.12856 130.413 7.76955 130.478L7.15203 130.589C6.43879 130.715 5.91703 129.89 6.30955 129.252L6.64942 128.699C6.84568 128.377 6.82175 127.96 6.59198 127.663L6.19466 127.155C5.73033 126.567 6.15159 125.683 6.87919 125.723L7.50148 125.753C7.86529 125.773 8.19558 125.542 8.32483 125.185L8.54023 124.572C8.79393 123.858 9.73217 123.797 10.0625 124.476L10.3497 125.059C10.5172 125.401 10.8714 125.587 11.2305 125.522L11.848 125.411C12.5612 125.285 13.083 126.11 12.6905 126.748L12.3506 127.301C12.1543 127.623 12.1783 128.04 12.408 128.337L12.8053 128.845C13.2697 129.433 12.8484 130.317 12.1208 130.277Z" fill="#EFE77B"/>
<g clip-path="url(#clip0_2300_23016)">
<path d="M132.829 93.0886C129.175 86.5671 128.133 78.9675 129.432 71.6099C129.759 69.7572 129.931 67.8474 129.931 65.898C129.931 47.7284 115.144 33 96.8966 33H77.1034C58.8565 33 44.069 47.7284 44.069 65.9024C44.069 67.8518 44.2413 69.7572 44.5683 71.6143C45.8672 78.9675 44.8245 86.5715 41.1707 93.093C38.5154 97.8279 37 103.289 37 109.098C37 127.267 51.7875 142 70.0344 142H103.966C122.208 142 137 127.272 137 109.098C137 103.285 135.485 97.8279 132.829 93.093V93.0886Z" fill="#0FD380"/>
<path d="M93.2086 57.1251C94.6462 57.1251 95.8116 55.7912 95.8116 54.1458C95.8116 52.5004 94.6462 51.1665 93.2086 51.1665C91.7709 51.1665 90.6055 52.5004 90.6055 54.1458C90.6055 55.7912 91.7709 57.1251 93.2086 57.1251Z" fill="#242424"/>
<path d="M66 60L72 60" stroke="#EAFF84" stroke-width="7" stroke-linecap="round"/>
<path d="M102 60H108" stroke="#EAFF84" stroke-width="7" stroke-linecap="round"/>
<path d="M80.2007 57.1251C81.6384 57.1251 82.8038 55.7912 82.8038 54.1458C82.8038 52.5004 81.6384 51.1665 80.2007 51.1665C78.7631 51.1665 77.5977 52.5004 77.5977 54.1458C77.5977 55.7912 78.7631 57.1251 80.2007 57.1251Z" fill="#242424"/>
</g>
<path d="M60.3316 18.5966C63.6243 18.2238 65.9869 15.2528 65.6087 11.9608C65.2304 8.6687 62.2546 6.3022 58.9619 6.67503C55.6692 7.04786 53.3066 10.0188 53.6849 13.3109C54.0631 16.6029 57.039 18.9694 60.3316 18.5966Z" fill="#FFBA97"/>
<path d="M58.484 14.7503L53.8798 43.5037C55.8428 48.5788 83.8632 37.7728 81.9006 32.7014L60.981 13.8725C60.0937 13.0732 58.6741 13.573 58.484 14.7503Z" fill="#FFBA97"/>
<defs>
<clipPath id="clip0_2300_23016">
<rect width="100" height="109" fill="white" transform="translate(37 33)"/>
</clipPath>
</defs>
</svg>
