<svg width="24" height="24" viewBox="0 0 24 24" fill="none" xmlns="http://www.w3.org/2000/svg">
<g clip-path="url(#clip0_940_22196)">
<path fill-rule="evenodd" clip-rule="evenodd" d="M21.1712 6.55502L22.6112 2.30361C22.6541 2.18169 22.6616 2.05014 22.6328 1.92412C22.6042 1.7981 22.5406 1.68276 22.4492 1.59138C22.3579 1.5 22.2425 1.4363 22.1165 1.40763C21.9905 1.37896 21.8588 1.38648 21.737 1.42933L17.4855 2.86932C17.3806 2.90626 17.2683 2.91775 17.1581 2.90285C17.0478 2.88796 16.9426 2.84709 16.8512 2.78361L13.2512 0.0921938C13.149 0.0330639 13.0333 0.0013217 12.9152 4.03916e-05C12.7972 -0.00124092 12.6808 0.0279821 12.5773 0.0848802C12.4739 0.141778 12.3869 0.224423 12.3248 0.324813C12.2626 0.425202 12.2274 0.539937 12.2227 0.657905V5.14931C12.2194 5.25938 12.1916 5.36733 12.1411 5.46523C12.0907 5.56314 12.019 5.64849 11.9312 5.71502L8.26266 8.30358C8.15742 8.37698 8.0749 8.47845 8.02446 8.59643C7.97403 8.7144 7.95771 8.84416 7.97735 8.97096C7.997 9.09775 8.05182 9.21648 8.1356 9.31368C8.21936 9.41086 8.32873 9.48259 8.45123 9.52071L12.7369 10.8578C12.8429 10.8884 12.9394 10.9453 13.0173 11.0232C13.0953 11.1012 13.1521 11.1976 13.1827 11.3036L14.5198 15.5893C14.5579 15.7118 14.6297 15.8211 14.7268 15.9049C14.824 15.9887 14.9428 16.0435 15.0696 16.0631C15.1964 16.0828 15.3261 16.0665 15.4441 16.016C15.5621 15.9656 15.6635 15.8831 15.7369 15.7778L18.2398 12.1778C18.3063 12.0901 18.3917 12.0184 18.4896 11.9679C18.5875 11.9175 18.6955 11.8897 18.8055 11.8864H23.297C23.4257 11.8897 23.5529 11.8566 23.6636 11.7909C23.7746 11.7253 23.8647 11.6297 23.9237 11.5152C23.9828 11.4007 24.0084 11.2718 23.9976 11.1434C23.9868 11.0151 23.94 10.8923 23.8627 10.7893L21.1712 7.1893C21.1215 7.09097 21.0956 6.98233 21.0956 6.87216C21.0956 6.76198 21.1215 6.65335 21.1712 6.55502ZM0.502102 21.0734L9.48697 12.0887L11.3657 12.6748L11.9326 14.4917L2.92647 23.4979C2.25699 24.1674 1.17157 24.1674 0.502102 23.4979C-0.167367 22.8283 -0.167367 21.743 0.502102 21.0734Z" fill="#0FD380"/>
</g>
<defs>
<clipPath id="clip0_940_22196">
<rect width="24" height="24" fill="white"/>
</clipPath>
</defs>
</svg>
