<svg width="24" height="24" viewBox="0 0 24 24" fill="none" xmlns="http://www.w3.org/2000/svg">
<path d="M3 8.68425C3 7.0025 3 6.16163 3.47383 5.60218C3.54511 5.51801 3.62324 5.43989 3.7074 5.36861C4.26685 4.89478 5.10773 4.89478 6.78947 4.89478H17.2105C18.8923 4.89478 19.7331 4.89478 20.2926 5.36861C20.3768 5.43989 20.4549 5.51801 20.5262 5.60218C21 6.16163 21 7.0025 21 8.68425C21 9.10469 21 9.3149 20.8815 9.45477C20.8637 9.47581 20.8442 9.49534 20.8231 9.51316C20.6833 9.63162 20.4731 9.63162 20.0526 9.63162H3.94737C3.52693 9.63162 3.31671 9.63162 3.17685 9.51316C3.15581 9.49534 3.13628 9.47581 3.11846 9.45477C3 9.3149 3 9.10469 3 8.68425Z" fill="#DFDFDF"/>
<path d="M3 17C3 18.8856 3 19.8284 3.58579 20.4142C4.17157 21 5.11438 21 7 21H17C18.8856 21 19.8284 21 20.4142 20.4142C21 19.8284 21 18.8856 21 17V12.5263C21 12.0549 21 11.8192 20.8536 11.6728C20.7071 11.5263 20.4714 11.5263 20 11.5263H4C3.5286 11.5263 3.29289 11.5263 3.14645 11.6728C3 11.8192 3 12.0549 3 12.5263V17Z" fill="#DFDFDF"/>
<path d="M7.5 3L7.5 5.84211" stroke="#DFDFDF" stroke-width="2" stroke-linecap="round"/>
<path d="M16.5 3L16.5 5.84211" stroke="#DFDFDF" stroke-width="2" stroke-linecap="round"/>
</svg>
