<svg width="24" height="24" viewBox="0 0 24 24" fill="none" xmlns="http://www.w3.org/2000/svg">
<path fill-rule="evenodd" clip-rule="evenodd" d="M12.4174 21.9053C14.1895 21.0658 21 17.4433 21 11.3537C21 6.74009 16.9706 3 12 3C7.02944 3 3 6.74009 3 11.3537C3 17.4433 9.81047 21.0658 11.5826 21.9053C11.848 22.031 12.152 22.031 12.4174 21.9053ZM11.9144 14.831C13.9973 14.831 15.6859 13.2562 15.6859 11.3136C15.6859 9.37102 13.9973 7.79625 11.9144 7.79625C9.83145 7.79625 8.14289 9.37102 8.14289 11.3136C8.14289 13.2562 9.83145 14.831 11.9144 14.831Z" fill="#DFDFDF"/>
</svg>
