<svg width="49" height="48" viewBox="0 0 49 48" fill="none" xmlns="http://www.w3.org/2000/svg">
<g clip-path="url(#clip0_4690_50061)">
<path d="M36.3869 7.00275L36.369 18.8081H46.7474L46.7653 7.00275C46.7673 5.66092 46.2226 4.37399 45.2509 3.42518C44.2792 2.47635 42.9599 1.9433 41.5837 1.9433C40.2075 1.9433 38.8866 2.47635 37.912 3.42518C36.9375 4.37399 36.3889 5.66092 36.3869 7.00275Z" fill="#C1C1C1"/>
<path fill-rule="evenodd" clip-rule="evenodd" d="M8.64369 -0.00227356C6.37043 -0.00227356 4.18888 0.900778 2.57901 2.50824C0.969114 4.11569 0.0627459 6.29588 0.0593099 8.56915L0.00230455 46.2834C0.00137103 46.901 0.332725 47.4709 0.869709 47.7752C1.40669 48.0795 2.06628 48.0711 2.59636 47.7534L10.2928 43.1397L17.9752 47.7534C18.5176 48.0791 19.1958 48.0791 19.7392 47.7534L27.4356 43.1397L35.1181 47.7534C35.6472 48.0711 36.3068 48.0795 36.8447 47.7752C37.3826 47.4709 37.7157 46.901 37.7166 46.2834L37.7555 20.5691L46.3269 20.5691C47.2737 20.5691 48.0423 19.8016 48.0438 18.8549L48.0619 6.85486C48.0646 5.03637 47.345 3.29216 46.061 2.00614C44.7769 0.720117 43.0336 -0.00227356 41.2151 -0.00227356L8.64369 -0.00227356ZM44.6333 6.85486L44.6178 17.1406L37.7606 17.1406L37.7762 6.85486C37.7776 5.94545 38.1401 5.07337 38.7839 4.43049C39.4278 3.78757 40.3006 3.42629 41.2099 3.42629C42.1192 3.42629 42.991 3.78758 43.6329 4.4305C44.2748 5.07338 44.6347 5.94545 44.6333 6.85486Z" fill="#DFDFDF"/>
<path fill-rule="evenodd" clip-rule="evenodd" d="M8.48339 12.3229C8.48501 11.2482 9.21235 10.377 10.1079 10.377H26.3242C27.2198 10.377 27.9445 11.2482 27.9428 12.3229C27.9412 13.3976 27.2139 14.2688 26.3183 14.2688H10.1021C9.20647 14.2688 8.48176 13.3976 8.48339 12.3229Z" fill="white"/>
<path fill-rule="evenodd" clip-rule="evenodd" d="M8.46874 22.7021C8.47036 21.6273 9.1977 20.7561 10.0933 20.7561H26.3095C27.2051 20.7561 27.9298 21.6273 27.9282 22.7021C27.9266 23.7768 27.1992 24.648 26.3036 24.648H10.0874C9.19182 24.648 8.46711 23.7768 8.46874 22.7021Z" fill="white"/>
<path fill-rule="evenodd" clip-rule="evenodd" d="M8.45311 33.08C8.45474 32.0053 9.18208 31.134 10.0777 31.134H26.2939C27.1895 31.134 27.9142 32.0053 27.9126 33.08C27.9109 34.1547 27.1836 35.0259 26.288 35.0259H10.0718C9.1762 35.0259 8.45149 34.1547 8.45311 33.08Z" fill="white"/>
</g>
<defs>
<clipPath id="clip0_4690_50061">
<rect width="48" height="48" fill="white" transform="matrix(1 0 -0.0015115 0.999999 0.0722656 0)"/>
</clipPath>
</defs>
</svg>
