<svg width="24" height="24" viewBox="0 0 24 24" fill="none" xmlns="http://www.w3.org/2000/svg">
<path fill-rule="evenodd" clip-rule="evenodd" d="M3 12C3 7.02934 7.02934 3 12 3C16.9707 3 21 7.02934 21 12C21 16.9707 16.9707 21 12 21C7.02926 21 3 16.9707 3 12ZM12.9 7.5C12.9 6.80717 12.15 6.37416 11.55 6.72061C11.2715 6.88133 11.1 7.17849 11.1 7.5V10.8876C11.1 11.9102 11.6777 12.8449 12.5922 13.3023L15.1977 14.6046C15.8075 14.9334 16.5446 14.4788 16.5245 13.7863C16.5146 13.445 16.3123 13.1386 16.0023 12.9954L13.3977 11.6922C13.0929 11.5398 12.9002 11.2284 12.9 10.8876V7.5Z" fill="#DFDFDF"/>
</svg>
