<svg width="335" height="40" viewBox="0 0 335 40" fill="none" xmlns="http://www.w3.org/2000/svg">
<path fill-rule="evenodd" clip-rule="evenodd" d="M164.989 2.84067C166.173 1.02967 168.827 1.02967 170.011 2.84067L176 12.0005L321 12.0005C328.732 12.0005 335 18.2685 335 26.0005C335 33.7324 328.732 40.0005 321 40.0005H14C6.26801 40.0005 0 33.7324 0 26.0005C0 18.2685 6.26801 12.0005 14 12.0005L159 12.0005L164.989 2.84067Z" fill="#00CC75"/>
<path d="M122.008 24.9414V26.0195H117.801V30.5312H116.488V26.0195H112.352V24.9414H114.859C115.229 23.5234 115.299 22.4629 115.328 21.6719H113.125V20.6289H116.605V21.168C116.605 21.9648 116.605 23.1953 116.184 24.9414H119.277C119.588 23.5352 119.635 22.4746 119.641 21.6719H117.355V20.6289H120.93V21.2734C120.93 22.0879 120.93 23.2773 120.602 24.9414H122.008ZM132.139 24.25V25.2812H127.944V26.0781H130.932V28.6797H124.908V29.4531H131.225V30.4492H123.631V27.7422H129.655V27.0625H123.619V26.0781H126.643V25.2812H122.483V24.25H132.139ZM130.897 20.2773V23.582H123.701V20.2773H130.897ZM124.979 21.2969V22.5625H129.596V21.2969H124.979ZM141.485 19.9492V30.543H140.184V25.1523H137.946V24.0859H140.184V19.9492H141.485ZM137.993 21.0742C137.981 24.2031 136.868 26.8281 133.223 28.6328L132.543 27.6133C135.286 26.2715 136.463 24.4785 136.68 22.1055H133.036V21.0742H137.993ZM148.206 20.4531V23.2305H144.573V24.1914C146.559 24.1855 147.76 24.1387 149.202 23.9102L149.331 24.8945C147.772 25.1523 146.436 25.1992 144.175 25.1992H143.284V22.3047H146.917V21.4492H143.249V20.4531H148.206ZM151.569 25.9023V28.5977H145.874V29.4414H151.885V30.4492H144.561V27.6484H150.233V26.8984H144.538V25.9023H151.569ZM151.569 19.9492V25.4922H150.257V19.9492H151.569ZM159.491 22.4922C159.48 24.4375 160.499 26.3828 162.222 27.1211L161.448 28.1641C160.23 27.6016 159.333 26.4766 158.847 25.0938C158.361 26.5879 157.452 27.8066 156.163 28.4102L155.366 27.3203C157.136 26.5586 158.167 24.5312 158.167 22.4922V20.8047H159.491V22.4922ZM164.296 19.9492V30.5547H162.984V19.9492H164.296ZM173.97 19.9492V22.9961H175.447V24.0859H173.97V27.5898H172.646V19.9492H173.97ZM171.087 20.7578C171.087 23.5703 169.259 25.5742 166.119 26.4883L165.58 25.457C167.999 24.7598 169.441 23.4414 169.669 21.8242H166.025V20.7578H171.087ZM174.369 29.2773V30.332H167.162V26.8047H168.486V29.2773H174.369ZM184.558 19.9492V30.5547H183.246V19.9492H184.558ZM178.851 20.7227C180.445 20.7227 181.605 22.1758 181.617 24.4609C181.605 26.7695 180.445 28.2109 178.851 28.2109C177.246 28.2109 176.086 26.7695 176.086 24.4609C176.086 22.1758 177.246 20.7227 178.851 20.7227ZM178.851 21.8945C177.949 21.8945 177.34 22.8438 177.34 24.4609C177.34 26.0898 177.949 27.0391 178.851 27.0391C179.742 27.0391 180.351 26.0898 180.351 24.4609C180.351 22.8438 179.742 21.8945 178.851 21.8945ZM190.887 26.1484V27.2852H192.281V26.1484H193.488V29.5117C194.731 28.9902 195.305 27.918 195.305 26.9102V26.0664H196.606V26.9102C196.606 28.0117 197.168 29.0781 198.481 29.5234L197.813 30.4961C196.881 30.1621 196.277 29.5176 195.949 28.7148C195.592 29.4941 194.988 30.1387 194.11 30.4961L193.488 29.5703V30.4141H189.668V26.1484H190.887ZM190.887 29.418H192.281V28.2578H190.887V29.418ZM191.426 20.3828C192.791 20.3828 193.869 21.1445 194.145 22.293H196.055V19.9492H197.356V25.5625H196.055V23.3711H194.145C193.887 24.5488 192.797 25.3281 191.426 25.3281C189.797 25.3281 188.625 24.3086 188.625 22.8438C188.625 21.3906 189.797 20.3828 191.426 20.3828ZM191.426 21.4609C190.512 21.4609 189.867 22 189.867 22.8438C189.867 23.6992 190.512 24.2617 191.426 24.2617C192.317 24.2617 192.949 23.6992 192.961 22.8438C192.949 22 192.317 21.4609 191.426 21.4609ZM201.51 20.7227C202.946 20.7227 204.006 21.918 204.194 23.8516H206.209V19.9492H207.498V30.5547H206.209V24.9062H204.205C204.065 26.9512 202.987 28.2109 201.51 28.2109C199.916 28.2109 198.791 26.7695 198.791 24.4609C198.791 22.1758 199.916 20.7227 201.51 20.7227ZM201.51 21.8945C200.631 21.8945 200.034 22.8438 200.045 24.4609C200.034 26.0898 200.631 27.0391 201.51 27.0391C202.389 27.0391 202.975 26.0898 202.987 24.4609C202.975 22.8438 202.389 21.8945 201.51 21.8945ZM218.426 28.1875V29.2539H208.747V28.1875H210.985V25.5039C210.141 25.0234 209.631 24.2676 209.637 23.3242C209.626 21.6367 211.29 20.5234 213.563 20.5234C215.848 20.5234 217.512 21.6367 217.512 23.3242C217.512 24.25 217.02 24.9941 216.2 25.4805V28.1875H218.426ZM213.563 21.5547C211.981 21.5547 210.903 22.2227 210.915 23.3242C210.903 24.4141 211.981 25.0938 213.563 25.0938C215.145 25.0938 216.235 24.4141 216.235 23.3242C216.235 22.2227 215.145 21.5547 213.563 21.5547ZM212.274 28.1875H214.876V25.9727C214.471 26.0664 214.032 26.1133 213.563 26.1133C213.106 26.1133 212.673 26.0664 212.274 25.9844V28.1875ZM221.058 21.0156L220.929 27.0039H219.604L219.464 21.0156H221.058ZM220.272 29.5938C219.768 29.5938 219.358 29.1836 219.358 28.6797C219.358 28.1875 219.768 27.7773 220.272 27.7773C220.753 27.7773 221.175 28.1875 221.175 28.6797C221.175 29.1836 220.753 29.5938 220.272 29.5938Z" fill="#ECFCF5"/>
</svg>
