<svg width="24" height="24" viewBox="0 0 24 24" fill="none" xmlns="http://www.w3.org/2000/svg">
<path d="M5.57227 18.6667V10.6667L12.0723 4L18.5723 10.6667V18.6667C18.5723 19.4031 17.9903 20 17.2723 20H6.87227C6.1543 20 5.57227 19.4031 5.57227 18.6667Z" fill="#DFDFDF"/>
<path fill-rule="evenodd" clip-rule="evenodd" d="M11.0909 3.36611C11.593 2.87796 12.407 2.87796 12.9092 3.36611L20.6234 10.8661C21.1255 11.3543 21.1255 12.1457 20.6234 12.6339C20.1214 13.122 19.3073 13.122 18.8052 12.6339L12 6.01776L5.19486 12.6339C4.69275 13.122 3.87868 13.122 3.37658 12.6339C2.87447 12.1457 2.87447 11.3543 3.37658 10.8661L11.0909 3.36611Z" fill="#DFDFDF"/>
</svg>
