<svg width="187" height="177" viewBox="0 0 187 177" fill="none" xmlns="http://www.w3.org/2000/svg">
<g clip-path="url(#clip0_2300_27700)">
<path d="M129.58 119.063C126.584 113.738 125.729 107.533 126.794 101.525C127.062 100.013 127.203 98.4534 127.203 96.8617C127.203 82.026 115.078 70 100.115 70H83.8848C68.9223 70 56.7966 82.026 56.7966 96.8653C56.7966 98.457 56.9379 100.013 57.206 101.529C58.2711 107.533 57.4161 113.742 54.42 119.067C52.2426 122.933 51 127.392 51 132.135C51 146.97 63.1257 159 78.0882 159H105.912C120.871 159 133 146.974 133 132.135C133 127.388 131.757 122.933 129.58 119.067V119.063Z" fill="#00CC75"/>
<path d="M97.0916 89.6983C98.2704 89.6983 99.2261 88.6091 99.2261 87.2656C99.2261 85.9221 98.2704 84.833 97.0916 84.833C95.9127 84.833 94.957 85.9221 94.957 87.2656C94.957 88.6091 95.9127 89.6983 97.0916 89.6983Z" fill="#242424"/>
<path d="M74.7812 92.0459L79.7012 92.0459" stroke="#EAFF84" stroke-width="7" stroke-linecap="round"/>
<path d="M104.301 92.0459H109.221" stroke="#EAFF84" stroke-width="7" stroke-linecap="round"/>
<path d="M86.4275 89.6983C87.6064 89.6983 88.562 88.6091 88.562 87.2656C88.562 85.9221 87.6064 84.833 86.4275 84.833C85.2486 84.833 84.293 85.9221 84.293 87.2656C84.293 88.6091 85.2486 89.6983 86.4275 89.6983Z" fill="#242424"/>
</g>
<path d="M40 123.625H142.626V168.475C142.626 173.063 138.985 176.79 134.502 176.79H48.1237C43.6414 176.79 40 173.063 40 168.475V123.625Z" fill="#FFBA97"/>
<path d="M91.1875 123.625L91.1875 177" stroke="#FF7B30" stroke-width="11.6075" stroke-linejoin="round"/>
<path d="M55.294 43.4092L140.154 67.3767C144.155 68.5068 146.508 72.75 145.404 76.8453L141.902 89.8307L42.5448 61.7684L46.046 48.783C47.1502 44.6877 51.2961 42.28 55.2974 43.4101L55.294 43.4092Z" fill="#FFBA97"/>
<path d="M99.0875 43.5772L98.5667 43.4005C96.6745 42.7586 94.6322 43.8082 94.0051 45.7448L92.4514 50.5424C91.8243 52.479 92.8498 54.5692 94.7419 55.2111L95.2628 55.3877C97.155 56.0296 99.1973 54.98 99.8244 53.0435L101.378 48.2458C102.005 46.3093 100.98 44.219 99.0875 43.5772Z" fill="#FF7B30"/>
<path d="M93.9903 52.0976C93.9903 52.0976 93.3831 21.7886 80.0991 30.4716C66.8152 39.1546 93.9903 52.0976 93.9903 52.0976Z" stroke="#FF7B30" stroke-width="8.51216" stroke-linecap="round" stroke-linejoin="round"/>
<path d="M98.9905 53.8815C98.9905 53.8815 112.001 26.6483 120.482 40.2435C128.962 53.8387 98.9905 53.8815 98.9905 53.8815Z" stroke="#FF7B30" stroke-width="8.51216" stroke-linecap="round" stroke-linejoin="round"/>
<path d="M70.8281 46.0732L123.054 61.2278" stroke="#FF7B30" stroke-width="8.51216" stroke-linecap="round" stroke-linejoin="round"/>
<path d="M95.3122 55.1105L89.2738 75.0473" stroke="#FF7B30" stroke-width="11.6075" stroke-linejoin="round"/>
<path d="M47.4055 5.22548C47.531 5.22548 47.6565 5.23594 47.7819 5.25163L47.1401 5.1575C47.5599 5.22025 47.9557 5.34577 48.3466 5.51312L47.7723 5.25163C48.5204 5.59679 49.2154 6.06224 49.8621 6.59567L49.3746 6.18775C50.1082 6.80485 50.7646 7.5161 51.3341 8.30578L50.9576 7.77758C51.5223 8.57773 51.9905 9.44063 52.3573 10.3663L52.116 9.74395C52.1594 9.85378 52.198 9.96883 52.2414 10.0787C52.4779 10.7324 52.7723 11.2763 53.3515 11.6423C53.8679 11.9718 54.6305 12.1078 55.2096 11.9038C55.7888 11.6999 56.3583 11.3076 56.6527 10.701C56.9471 10.0943 57.1256 9.33081 56.894 8.68755C56.1459 6.61136 55.0696 4.7182 53.5542 3.19113C51.8891 1.51239 49.7462 0.074217 47.4151 0.00100104C46.1507 -0.0408366 44.9441 1.23521 45.002 2.61586C45.0599 4.06972 46.0638 5.18888 47.4151 5.23071L47.4055 5.22548Z" fill="#FFBA97"/>
<path d="M2.6114 102.948C8.30193 104.126 14.4617 102.758 19.4833 99.2545C20.5165 98.5333 21.1613 96.9836 20.5447 95.6692C19.9925 94.4874 18.5965 93.7296 17.491 94.5048C16.3855 95.2799 15.1184 96.0066 13.8579 96.5681C13.74 96.6189 13.6171 96.6747 13.4947 96.7252C13.9993 96.5081 13.3915 96.761 13.3305 96.7836C13.0252 96.8965 12.7203 97.0041 12.4112 97.1061C11.7603 97.3186 11.1074 97.4935 10.4476 97.6359C9.78771 97.7782 9.18578 97.8764 8.54882 97.9508C8.39168 97.9722 8.23034 97.988 8.07356 98.0041C8.64911 97.9576 7.99607 97.9988 7.92241 98.0045C7.60537 98.0204 7.28412 98.0307 6.96815 98.0306C5.62607 98.0358 4.29403 97.8919 2.97973 97.6208C1.8011 97.3751 0.559927 98.804 0.521075 100.127C0.473755 101.712 1.36091 102.682 2.62087 102.944L2.6114 102.948Z" fill="#FFBA97"/>
<path d="M149.192 80.5987C149.272 81.497 149.295 82.3902 149.249 83.2885C149.226 83.7402 149.175 84.1816 149.135 84.6333C149.083 85.1785 149.232 84.1037 149.112 84.7995C149.071 85.0228 149.031 85.2408 148.985 85.4641C148.802 86.3468 148.561 87.2192 148.251 88.076C148.096 88.5017 147.918 88.9223 147.746 89.3429C147.534 89.8466 147.982 88.8964 147.706 89.4312C147.586 89.6649 147.471 89.8985 147.345 90.127C146.691 91.3472 146.932 92.9881 148.372 93.6787C149.657 94.2914 151.601 94.0525 152.295 92.7492C154.309 88.9743 155.295 84.7891 154.922 80.5987C154.802 79.2487 153.689 77.935 152.054 78.0025C150.603 78.0596 149.054 79.15 149.186 80.5987H149.192Z" fill="#FFBA97"/>
<path d="M131.677 31.6767C136.619 29.2221 140.815 25.0612 143.671 20.0122C144.349 18.8118 143.941 16.9978 142.793 16.3303C141.645 15.6629 140.158 16.0181 139.436 17.2939C139.112 17.8698 138.769 18.435 138.405 18.9841C138.317 19.1132 138.229 19.2424 138.145 19.3716C137.875 19.7807 138.342 19.1079 138.15 19.3662C137.944 19.6408 137.743 19.9207 137.532 20.1898C136.747 21.1964 135.898 22.1384 134.99 23.0104C134.769 23.2257 134.543 23.4302 134.317 23.6348C134.204 23.7371 134.087 23.8393 133.974 23.9362C133.517 24.3345 134.258 23.7101 133.979 23.9308C133.473 24.3238 132.977 24.7221 132.457 25.0935C131.417 25.8256 130.327 26.4715 129.198 27.0313C128.07 27.5911 127.652 29.5774 128.32 30.7131C129.1 32.0427 130.42 32.3011 131.677 31.6767Z" fill="#FFBA97"/>
<path d="M37 26C39.2091 26 41 24.2091 41 22C41 19.7909 39.2091 18 37 18C34.7909 18 33 19.7909 33 22C33 24.2091 34.7909 26 37 26Z" fill="#FF7B30"/>
<path d="M159 116C161.209 116 163 114.209 163 112C163 109.791 161.209 108 159 108C156.791 108 155 109.791 155 112C155 114.209 156.791 116 159 116Z" fill="#FF7B30"/>
<path d="M22.9952 53.2772L22.284 53.2471C21.8682 53.227 21.4908 53.4582 21.3431 53.8151L21.0969 54.4284C20.8069 55.1423 19.7347 55.2026 19.3572 54.5239L19.0289 53.9408C18.8375 53.599 18.4326 53.413 18.0223 53.4783L17.3166 53.5889C16.5015 53.7146 15.9052 52.8902 16.3538 52.2517L16.7422 51.6988C16.9665 51.377 16.9391 50.9598 16.6765 50.6632L16.2225 50.1555C15.6918 49.5673 16.1732 48.6825 17.0048 48.7228L17.716 48.7529C18.1318 48.773 18.5092 48.5418 18.6569 48.1849L18.9031 47.5716C19.1931 46.8577 20.2653 46.7974 20.6428 47.4761L20.9711 48.0592C21.1625 48.401 21.5674 48.587 21.9777 48.5217L22.6834 48.4111C23.4985 48.2854 24.0948 49.1098 23.6462 49.7483L23.2578 50.3012C23.0335 50.623 23.0609 51.0402 23.3235 51.3368L23.7775 51.8445C24.3082 52.4327 23.8268 53.3175 22.9952 53.2772Z" fill="#EFE77B"/>
<path d="M170.995 79.2772L170.284 79.2471C169.868 79.227 169.491 79.4582 169.343 79.8151L169.097 80.4284C168.807 81.1423 167.735 81.2026 167.357 80.5239L167.029 79.9408C166.837 79.599 166.433 79.413 166.022 79.4783L165.317 79.5889C164.501 79.7146 163.905 78.8902 164.354 78.2517L164.742 77.6988C164.966 77.377 164.939 76.9598 164.677 76.6632L164.222 76.1555C163.692 75.5673 164.173 74.6825 165.005 74.7228L165.716 74.7529C166.132 74.773 166.509 74.5418 166.657 74.1849L166.903 73.5716C167.193 72.8577 168.265 72.7974 168.643 73.4761L168.971 74.0592C169.163 74.401 169.567 74.587 169.978 74.5217L170.683 74.4111C171.499 74.2854 172.095 75.1098 171.646 75.7483L171.258 76.3012C171.034 76.623 171.061 77.0402 171.323 77.3368L171.778 77.8445C172.308 78.4327 171.827 79.3175 170.995 79.2772Z" fill="#EFE77B"/>
<path d="M14.9952 119.277L14.284 119.247C13.8683 119.227 13.4908 119.458 13.3431 119.815L13.0969 120.428C12.8069 121.142 11.7347 121.203 11.3572 120.524L11.0289 119.941C10.8375 119.599 10.4326 119.413 10.0223 119.478L9.31661 119.589C8.50147 119.715 7.90518 118.89 8.35378 118.252L8.74219 117.699C8.96649 117.377 8.93914 116.96 8.67655 116.663L8.22247 116.155C7.69181 115.567 8.17324 114.683 9.00479 114.723L9.71598 114.753C10.1318 114.773 10.5092 114.542 10.6569 114.185L10.9031 113.572C11.1931 112.858 12.2653 112.797 12.6428 113.476L12.9711 114.059C13.1625 114.401 13.5674 114.587 13.9777 114.522L14.6834 114.411C15.4985 114.285 16.0948 115.11 15.6462 115.748L15.2578 116.301C15.0335 116.623 15.0609 117.04 15.3235 117.337L15.7775 117.845C16.3082 118.433 15.8268 119.317 14.9952 119.277Z" fill="#EFE77B"/>
<defs>
<clipPath id="clip0_2300_27700">
<rect width="82" height="89" fill="white" transform="translate(51 70)"/>
</clipPath>
</defs>
</svg>
